<?xml version="1.0" encoding="UTF-8"?>
<svg version="1.1" xmlns="http://www.w3.org/2000/svg" width="761" height="734">
<path d="M0 0 C251.13 0 502.26 0 761 0 C761 242.22 761 484.44 761 734 C509.87 734 258.74 734 0 734 C0 491.78 0 249.56 0 0 Z " fill="#00AE56" transform="translate(0,0)"/>
<path d="M0 0 C217.1602349 0 217.1602349 0 259.1328125 22.49609375 C261.65094603 23.81691311 264.08238961 24.84695078 266.75 25.8125 C293.68375524 36.16821777 317.35007255 56.38962763 338 76 C338.95132812 76.8971875 339.90265625 77.794375 340.8828125 78.71875 C348.00794851 85.62059115 354.08842568 93.06462402 360 101 C360.64799561 101.8647998 360.64799561 101.8647998 361.30908203 102.74707031 C367.81587702 111.48032831 373.64153309 120.52085393 379 130 C379.4021875 130.70721191 379.804375 131.41442383 380.21875 132.14306641 C394.94215918 158.2943717 403.70646688 186.56737735 409 216 C409.24991699 217.34215576 409.24991699 217.34215576 409.50488281 218.71142578 C414.57008995 247.02100483 413.75845417 278.55449217 410 307 C409.8870459 307.8981543 409.7740918 308.79630859 409.65771484 309.72167969 C403.22622076 358.5734835 381.79760022 404.68720951 350 442 C349.38125 442.74894531 348.7625 443.49789063 348.125 444.26953125 C339.18716522 454.88321006 328.96114016 464.52441416 318 473 C316.95006187 473.82884603 315.9006012 474.65829714 314.8515625 475.48828125 C308.68303801 480.33524219 302.38617906 484.85926436 295.80859375 489.14453125 C293.27136329 490.82072662 290.82650119 492.57723246 288.375 494.375 C263.29482759 512 263.29482759 512 251 512 C251 512.66 251 513.32 251 514 C247.72100965 515.39108682 244.44153591 516.45811981 241.01489258 517.41992188 C238.91289292 518.02507772 236.82860027 518.67524498 234.7421875 519.33203125 C160.46695397 542.19128674 70.8664011 530 0 530 C0 355.1 0 180.2 0 0 Z " fill="#000000" transform="translate(342,181)"/>
<path d="M0 0 C37.95 0 75.9 0 115 0 C115.0662318 50.78688317 115.1215875 101.57372536 115.15319599 152.36063942 C115.15694776 158.36697258 115.16083076 164.37330565 115.16479492 170.37963867 C115.16558185 171.57530805 115.16636878 172.77097743 115.16717956 174.00287921 C115.18020613 193.3209185 115.20384471 212.6389308 115.23145839 231.95695411 C115.2595893 251.80348094 115.27619245 271.64999371 115.28226548 291.49653965 C115.28636604 303.7265449 115.29928088 315.95647382 115.3237494 328.18645556 C115.33970164 336.59188592 115.34437907 344.99727726 115.34050413 353.40272164 C115.33859723 358.24018249 115.34135933 363.07751071 115.35761642 367.91494751 C115.51175345 416.21102202 111.05149024 462.48332903 79 501 C78.56300781 501.52803223 78.12601562 502.05606445 77.67578125 502.60009766 C71.79661754 509.60760856 65.260724 515.46008979 58 521 C57.28070313 521.55042969 56.56140625 522.10085938 55.8203125 522.66796875 C51.32160364 526 51.32160364 526 49 526 C49 526.66 49 527.32 49 528 C48.401875 528.103125 47.80375 528.20625 47.1875 528.3125 C44.9708791 528.80772186 44.9708791 528.80772186 43.78515625 530.33203125 C41.27158096 532.6806016 38.34517364 533.95971421 35.25 535.375 C34.58605225 535.68026611 33.92210449 535.98553223 33.23803711 536.30004883 C11.23958903 546.18754566 -11.80946348 550.3824659 -35.80541992 550.26074219 C-38.29956614 550.25005542 -40.79298526 550.26068861 -43.28710938 550.2734375 C-58.16542259 550.28826812 -72.91275186 549.35137034 -87.3125 545.375 C-88.26979004 545.11630127 -89.22708008 544.85760254 -90.21337891 544.59106445 C-126.63980186 534.42005025 -155.79809452 516.42262925 -175 483 C-194.01953952 446.73890535 -198.93123761 402.23334889 -187 363 C-187.928125 362.62875 -187.928125 362.62875 -188.875 362.25 C-191.44401852 360.73881263 -191.92911294 359.74696071 -193 357 C-193.59231102 347.12306187 -189.98937232 336.63121012 -187.6953125 327.109375 C-187.25465263 325.25558923 -186.81469093 323.40163738 -186.37538147 321.54753113 C-185.2072433 316.62519023 -184.03011326 311.70504172 -182.85125351 306.78525925 C-181.64042362 301.72479129 -180.43821009 296.662279 -179.2355957 291.59985352 C-177.57689252 284.61995294 -175.91610388 277.6405571 -174.25211048 270.66191578 C-170.85893917 256.42930874 -167.51071806 242.18660485 -164.1875 227.9375 C-163.74047878 226.02374395 -163.29337945 224.11000614 -162.84619141 222.19628906 C-161.8964438 218.13109605 -160.94775298 214.06565848 -160 210 C-151.78543834 210.42900347 -144.12293797 211.40159126 -136.1875 213.5625 C-135.29224609 213.79646484 -134.39699219 214.03042969 -133.47460938 214.27148438 C-131.31356192 214.83774815 -129.15571782 215.41383853 -127 216 C-127 216.66 -127 217.32 -127 218 C-125.8965625 218.12246094 -124.793125 218.24492187 -123.65625 218.37109375 C-118.55037555 219.00932806 -113.53769521 220.02640426 -108.5 221.0625 C-107.5821875 221.24876953 -106.664375 221.43503906 -105.71875 221.62695312 C-103.4786102 222.08198152 -101.23917032 222.5402326 -99 223 C-99.59774916 229.24117013 -100.58180144 235.20874851 -101.99609375 241.3125 C-102.18969986 242.16626221 -102.38330597 243.02002441 -102.58277893 243.8996582 C-103.19639045 246.60085147 -103.81677387 249.30043378 -104.4375 252 C-104.85006884 253.80979115 -105.26218194 255.61968626 -105.67382812 257.4296875 C-106.43392666 260.77018934 -107.19698456 264.10998815 -107.96264648 267.44921875 C-108.67207433 270.54354448 -109.36075315 273.64168792 -110.03930664 276.74291992 C-110.76128519 280.00330644 -111.5766194 283.21559089 -112.5 286.42578125 C-113.94374529 291.64221345 -115.00616471 296.87015276 -116 302.1875 C-118.39086752 314.49523587 -121.10976814 326.72789503 -123.87988281 338.95498657 C-124.37556438 341.14696045 -124.86809205 343.33964998 -125.35742188 345.53305054 C-126.05484351 348.654349 -126.76409378 351.7727313 -127.4765625 354.890625 C-127.68584381 355.83551285 -127.89512512 356.7804007 -128.11074829 357.75392151 C-129.37435128 363.20873324 -130.57233124 367.81509812 -134.875 371.6875 C-137 373 -137 373 -139.6875 373.875 C-140.450625 374.24625 -141.21375 374.6175 -142 375 C-146.90303949 392.72622729 -142.53614683 413.92697445 -133.97265625 429.78125 C-124.39865909 445.40298002 -110.3632556 455.28567996 -92.625 459.875 C-69.90270883 464.10063767 -46.46100057 461.09475967 -27.16015625 448.0859375 C-12.71132703 437.17870101 -5.091636 421.12761786 -2.48053646 403.49136734 C-1.85844661 398.40445991 -1.82897743 393.34348298 -1.80360413 388.22406006 C-1.79459692 387.15991969 -1.78558971 386.09577932 -1.77630955 384.99939227 C-1.74742994 381.44199659 -1.7253529 377.88459293 -1.70336914 374.32714844 C-1.68426037 371.77028897 -1.66478774 369.21343221 -1.64497948 366.65657806 C-1.59788625 360.41459071 -1.55546957 354.17258647 -1.51538958 347.93055058 C-1.48230948 342.79213463 -1.4471664 337.65373629 -1.41078377 332.51534271 C-0.95415043 267.86936295 -0.69930804 203.22261499 -0.48259032 138.57545424 C-0.4470625 127.99154183 -0.41011171 117.407635 -0.37231445 106.82373047 C-0.36956495 106.05343282 -0.36681544 105.28313516 -0.36398262 104.48949516 C-0.34242043 98.45110685 -0.32079346 92.41271877 -0.29914629 86.37433076 C-0.19594723 57.58289854 -0.09831431 28.79145011 0 0 Z " fill="#000000" transform="translate(200,181)"/>
<path d="M0 0 C6.03739045 -0.02806371 12.0747419 -0.04834675 18.11218262 -0.0617981 C20.16085472 -0.06741305 22.20952241 -0.07505765 24.25817871 -0.08486938 C65.63560547 -0.27790348 99.9137982 10.02668261 131 38 C132.05380859 38.928125 132.05380859 38.928125 133.12890625 39.875 C158.57329787 63.67267734 176.58083445 102.61315241 178.10786438 137.46157837 C178.16430754 140.22863525 178.19093194 142.99410988 178.203125 145.76171875 C178.20882507 146.78820023 178.21452515 147.8146817 178.22039795 148.87226868 C178.22981115 151.04317203 178.23636723 153.21408944 178.24023438 155.38500977 C178.24983764 158.63259518 178.28085389 161.87951862 178.3125 165.12695312 C178.52762396 207.32042862 166.59307456 250.32572763 136.375 281.125 C117.45972747 299.73497884 94.74783161 312.39292837 68.875 318.3125 C68.23256348 318.45985596 67.59012695 318.60721191 66.92822266 318.7590332 C51.50197893 321.97581772 36.12877963 322.26461854 20.4375 322.125 C18.44336393 322.11493762 16.44922288 322.1058176 14.45507812 322.09765625 C9.63659238 322.0759296 4.81835359 322.04158441 0 322 C0.02300171 320.84314194 0.04600342 319.68628387 0.06970215 318.49436951 C0.27697215 307.53552677 0.3983199 296.57856398 0.43784332 285.6177969 C0.4608599 279.98360561 0.51301277 274.35297183 0.63427734 268.7199707 C0.75043755 263.27233909 0.78676238 257.82923617 0.7702179 252.3804493 C0.77749409 250.31319443 0.81244238 248.24582677 0.87687683 246.17956352 C1.33131656 233.38945931 1.33131656 233.38945931 -4.50390625 222.44558716 C-7.81890761 219.13531419 -11.3658528 216.21293923 -15.1199646 213.41624641 C-17.57239229 211.5688121 -19.81491635 209.5266193 -22.0625 207.4375 C-22.82433594 206.75816406 -23.58617187 206.07882812 -24.37109375 205.37890625 C-27.8272821 202.2513896 -31.2244157 199.06273599 -34.625 195.875 C-39.06299217 191.71753277 -43.51338952 187.59449371 -48.125 183.62890625 C-50.38751181 181.66334911 -52.59690683 179.64326691 -54.8125 177.625 C-59.29955443 173.56859166 -63.93624831 169.73176035 -68.65234375 165.9453125 C-70.55178936 164.37139584 -72.30080455 162.78331404 -74 161 C-72.5045292 157.40278644 -70.47293692 155.36902779 -67.5625 152.8125 C-66.66144531 152.01972656 -65.76039063 151.22695313 -64.83203125 150.41015625 C-62.17087053 148.14541672 -59.47262233 145.9401984 -56.75 143.75 C-50.99053574 139.09341188 -45.62051301 134.07165823 -40.22265625 129.0078125 C-37.18205669 126.1577443 -34.07651576 123.39511189 -30.921875 120.671875 C-28.58894926 118.64241927 -26.29488755 116.572353 -24 114.5 C-21.01937279 111.81016569 -18.02754767 109.13689636 -15 106.5 C-14.40677948 105.95738022 -13.81355896 105.41476044 -13.20236206 104.85569763 C-11 103 -11 103 -8.46389771 101.44325256 C-4.74474293 98.87580538 -1.6653914 96.42569059 -0.42549896 91.90565109 C0.51086196 85.49459541 0.29424053 79.01923247 0.1953125 72.55859375 C0.19910321 70.46394131 0.2072979 68.36929263 0.21969604 66.27467346 C0.24044036 60.78475763 0.20167518 55.29684035 0.15020752 49.80718994 C0.10823439 44.19630702 0.12296054 38.58559829 0.1328125 32.97460938 C0.14380792 21.9825101 0.09189103 10.99168724 0 0 Z " fill="#00AE56" transform="translate(453,284)"/>
<path d="M0 0 C-0.46134012 10.45790672 -2.55814107 20.42744766 -4.75 30.625 C-5.13882974 32.45934058 -5.52741331 34.29373335 -5.91577148 36.12817383 C-11.37877913 61.80190923 -17.20609864 87.39938496 -23 113 C-19.7 113.66 -16.4 114.32 -13 115 C-14.26811899 121.56468025 -15.70039652 128.03805116 -17.3828125 134.5078125 C-17.60194305 135.35930878 -17.82107361 136.21080505 -18.04684448 137.08810425 C-18.73704682 139.76772603 -19.4309523 142.44637194 -20.125 145.125 C-20.59790319 146.95826965 -21.07056158 148.79160247 -21.54296875 150.625 C-22.6924888 155.08406728 -23.84532749 159.5422643 -25 164 C-24.071875 164.12375 -23.14375 164.2475 -22.1875 164.375 C-19 165 -19 165 -16 167 C-16.58327716 173.2067166 -17.58295718 179.06639854 -19.08984375 185.109375 C-19.30565598 185.99622482 -19.5214682 186.88307465 -19.74382019 187.79679871 C-20.21850712 189.74649974 -20.69553972 191.69563082 -21.17462158 193.64425659 C-22.53249257 199.17226573 -23.86930273 204.70536924 -25.20703125 210.23828125 C-25.50208557 211.45749771 -25.79713989 212.67671417 -26.10113525 213.93287659 C-29.99781716 230.07478215 -33.7643093 246.24733441 -37.53720856 262.41852951 C-38.124346 264.93469728 -38.71186076 267.45077666 -39.29949951 269.96682739 C-42.9930996 285.78205711 -46.67986598 301.59882668 -50.33984375 317.421875 C-50.58109985 318.46384537 -50.82235596 319.50581573 -51.07092285 320.57936096 C-52.14130366 325.20245165 -53.20946799 329.82602036 -54.27197266 334.45092773 C-54.63044306 336.00246239 -54.98899758 337.55397761 -55.34765625 339.10546875 C-55.50403061 339.79102844 -55.66040497 340.47658813 -55.82151794 341.18292236 C-56.37997314 343.58991486 -56.89061563 345.78123127 -58 348 C-56.63875 348.37125 -56.63875 348.37125 -55.25 348.75 C-51.73653521 350.10133261 -50.069842 350.85384017 -48 354 C-48.4328155 361.65254645 -50.62041819 369.03617485 -52.5 376.4375 C-52.82456878 377.74144938 -53.14879032 379.04548525 -53.47265625 380.34960938 C-55.86872691 389.86872691 -55.86872691 389.86872691 -57 391 C-62.94678528 391.52922127 -68.45951679 390.71971155 -74.20703125 389.27734375 C-75.34050995 389.00599861 -75.34050995 389.00599861 -76.49688721 388.72917175 C-78.93799867 388.14204037 -81.37521804 387.54031268 -83.8125 386.9375 C-85.50495651 386.52582857 -87.19758536 386.11486511 -88.89038086 385.70458984 C-92.2988984 384.87641456 -95.70571661 384.04170293 -99.11132812 383.20166016 C-102.91151293 382.26504876 -106.71524194 381.34458583 -110.52180481 380.4342804 C-113.70387382 379.67208477 -116.88305484 378.89805579 -120.0625 378.125 C-121.20759033 377.85163818 -122.35268066 377.57827637 -123.5324707 377.29663086 C-124.58523193 377.0363208 -125.63799316 376.77601074 -126.72265625 376.5078125 C-127.62765869 376.28754395 -128.53266113 376.06727539 -129.46508789 375.84033203 C-132.26774176 374.91124269 -134.5281617 373.60117504 -137 372 C-136.32267703 364.54016898 -134.46536226 357.48165169 -132.5625 350.25 C-132.24990234 349.03183594 -131.93730469 347.81367188 -131.61523438 346.55859375 C-129.0510498 336.72470196 -129.0510498 336.72470196 -127 333 C-125.1128125 332.9690625 -125.1128125 332.9690625 -123.1875 332.9375 C-122.47980469 332.92589844 -121.77210937 332.91429687 -121.04296875 332.90234375 C-119 333 -119 333 -116 334 C-115.76708252 333.00049316 -115.53416504 332.00098633 -115.29418945 330.97119141 C-113.45983177 323.1241806 -111.59301625 315.28622262 -109.66796875 307.4609375 C-109.46848129 306.64979492 -109.26899384 305.83865234 -109.0634613 305.00292969 C-108.65062354 303.32465909 -108.2377559 301.64639585 -107.82485962 299.96813965 C-104.22842294 285.33579982 -100.74699443 270.68787108 -97.47338867 255.97998047 C-95.57291599 247.46339979 -93.56887393 238.9771694 -91.5 230.5 C-89.06517995 220.52178567 -86.74136624 210.52317779 -84.5 200.5 C-82.26834991 190.5493251 -80.01000096 180.60624884 -77.64746094 170.68579102 C-77.19719826 168.79081607 -76.75283035 166.89444356 -76.30859375 164.99804688 C-76.0353125 163.85916016 -75.76203125 162.72027344 -75.48046875 161.546875 C-75.24223389 160.54495117 -75.00399902 159.54302734 -74.75854492 158.51074219 C-74 156 -74 156 -72 153 C-69.36 153.33 -66.72 153.66 -64 154 C-63.96044189 153.40791748 -63.92088379 152.81583496 -63.88012695 152.20581055 C-63.33386733 145.50515635 -61.96519165 139.28493857 -60.1875 132.8125 C-59.92050293 131.81597412 -59.65350586 130.81944824 -59.37841797 129.79272461 C-58.84293266 127.79648819 -58.3042661 125.80110204 -57.76220703 123.80664062 C-56.87895003 120.55426314 -56.013217 117.2974446 -55.1496582 114.03979492 C-54.43819848 111.35849559 -53.71951802 108.67914651 -53 106 C-49.7 106.66 -46.4 107.32 -43 108 C-42.92136719 106.74316406 -42.84273438 105.48632812 -42.76171875 104.19140625 C-41.90105259 95.63731584 -39.74179801 87.29995126 -37.8125 78.9375 C-37.4011043 77.14164313 -36.98989139 75.34574438 -36.57885742 73.54980469 C-35.7646178 69.99766852 -34.94599451 66.44657644 -34.125 62.89599609 C-33.15272326 58.68187849 -32.21213571 54.46172327 -31.28125 50.23828125 C-26.65606448 29.55700881 -18.95256014 15.5023274 -3 1 C-1 0 -1 0 0 0 Z " fill="#000301" transform="translate(171,5)"/>
<path d="M0 0 C9.57 0 19.14 0 29 0 C27.70801729 7.10590493 26.35284246 14.07760149 24.6640625 21.08203125 C24.43275635 22.05323914 24.2014502 23.02444702 23.96313477 24.02508545 C23.4551786 26.15771158 22.94603717 28.29005566 22.43585205 30.42214966 C20.99134988 36.4619302 19.55783395 42.50431756 18.125 48.546875 C17.96802265 49.20857256 17.8110453 49.87027012 17.64931107 50.55201912 C12.90928246 70.54022822 8.27218691 90.55254886 3.625 110.5625 C3.19509235 112.41338179 2.76518109 114.26426274 2.33526611 116.11514282 C0.69273145 123.18688175 -0.94969995 130.25864462 -2.59164429 137.33052063 C-6.04974508 152.22300732 -9.52284126 167.11194971 -13 182 C-22.24 182 -31.48 182 -41 182 C-40.31201412 175.80812705 -39.47292304 170.07084488 -38.04492188 164.06469727 C-37.84743064 163.21524882 -37.6499394 162.36580038 -37.44646358 161.49061108 C-36.79209069 158.68138184 -36.13040485 155.87392847 -35.46875 153.06640625 C-34.99992669 151.05962259 -34.53160023 149.0527228 -34.06373596 147.04571533 C-33.06631769 142.77113515 -32.06580708 138.49729582 -31.06277466 134.22402954 C-29.49430779 127.54142022 -27.93270171 120.85722129 -26.37280273 114.17260742 C-26.11298457 113.05926686 -25.85316641 111.9459263 -25.58547497 110.79884815 C-25.05914348 108.54342159 -24.53283449 106.28798977 -24.00654793 104.03255272 C-23.21272772 100.6315592 -22.41824959 97.23071991 -21.62364197 93.82991028 C-16.9072131 73.6383822 -12.24827146 53.43388155 -7.61514282 33.22309494 C-7.06149562 30.80811897 -6.50759468 28.39320133 -5.95361328 25.978302 C-3.96730694 17.31927199 -1.98324643 8.6597324 0 0 Z " fill="#000201" transform="translate(514,355)"/>
<path d="M0 0 C3.03726958 1.36610268 5.20915026 2.93073807 7.609375 5.23046875 C8.28226563 5.86919922 8.95515625 6.50792969 9.6484375 7.16601562 C10.68871094 8.16665039 10.68871094 8.16665039 11.75 9.1875 C16.46009693 13.68716485 21.21078949 18.1004125 26.13330078 22.36743164 C28.83214815 24.72777592 31.44551874 27.17477879 34.0625 29.625 C39.55434288 34.73710523 45.17924553 39.67782152 50.88696289 44.54736328 C52.60370428 46.0180578 54.30437986 47.50504193 56 49 C56.99 49.86753906 57.98 50.73507812 59 51.62890625 C61 54 61 54 61.01953125 56.12109375 C59.82493744 58.32262487 58.6359197 59.48520786 56.6875 61.0625 C53.03238793 64.11389518 49.49463716 67.26717247 46 70.5 C40.36690522 75.68303915 34.65015481 80.74673051 28.8203125 85.70703125 C27.62999786 86.72110717 26.43990046 87.73543812 25.25 88.75 C24.64937744 89.26175781 24.04875488 89.77351563 23.42993164 90.30078125 C18.43328844 94.5799886 13.60192665 99.0141147 8.81640625 103.52734375 C5.67931746 106.28154237 2.43010038 108.62400729 -1 111 C-1.19886761 106.42872198 -1.34341878 101.8599965 -1.43945312 97.28540039 C-1.47950603 95.73221961 -1.53397031 94.17933715 -1.60351562 92.62719727 C-2.16471279 79.77330633 -2.16471279 79.77330633 0.5769043 75.59912109 C2.62017097 73.8192241 4.69807143 72.42377026 7 71 C8.19766686 69.95983672 9.37238874 68.89250707 10.51953125 67.796875 C11.06673828 67.2915625 11.61394531 66.78625 12.17773438 66.265625 C12.71720703 65.76546875 13.25667969 65.2653125 13.8125 64.75 C14.37130859 64.234375 14.93011719 63.71875 15.50585938 63.1875 C18.04922033 60.83511847 20.57978445 58.47965944 23 56 C19.84455922 48.81260711 12.82842355 43.71969409 6.95703125 38.73828125 C5.98830078 37.87783203 5.98830078 37.87783203 5 37 C3.71706055 35.94039063 3.71706055 35.94039063 2.40820312 34.859375 C-0.68830559 31.18274179 -0.5829727 29.26522934 -0.48828125 24.51171875 C-0.48120651 23.80852005 -0.47413177 23.10532135 -0.46684265 22.3808136 C-0.43899212 20.14859773 -0.3762832 17.91894923 -0.3125 15.6875 C-0.28740451 14.16865619 -0.26459352 12.6497728 -0.24414062 11.13085938 C-0.18920007 7.41974752 -0.10299739 3.71012459 0 0 Z " fill="#000201" transform="translate(555,387)"/>
<path d="M0 0 C2.04998184 24.87634765 2.04998184 24.87634765 -1.09863281 31.20996094 C-3.89308613 34.43433015 -7.38787662 36.25588719 -11.203125 38.05957031 C-14.26932353 39.6643253 -16.68757448 41.87604038 -19.3125 44.125 C-20.66794922 45.24261719 -20.66794922 45.24261719 -22.05078125 46.3828125 C-22.69402344 46.91648437 -23.33726562 47.45015625 -24 48 C-22.6729014 51.00682164 -21.30954211 52.87171825 -18.8046875 54.98828125 C-18.17046875 55.53033203 -17.53625 56.07238281 -16.8828125 56.63085938 C-15.88894531 57.46327148 -15.88894531 57.46327148 -14.875 58.3125 C-12.91890594 59.97478558 -10.96501254 61.63703395 -9.03222656 63.32641602 C-7.0234978 65.0471885 -7.0234978 65.0471885 -4.74121094 66.45288086 C-1.02415351 69.03792534 0.75413315 70.72250333 1.62939453 75.27026367 C1.78744614 79.18064331 1.70012236 83.03369806 1.5 86.9375 C1.45981576 88.30262979 1.42332359 89.66787353 1.390625 91.03320312 C1.2966267 94.35839304 1.16533504 97.67771956 1 101 C-3.24443249 97.90359893 -7.37548298 94.88927802 -11 91.0625 C-14.82476264 87.14174911 -18.83727157 83.55637356 -23 80 C-24.07714468 79.07068532 -25.15393909 78.14096456 -26.23046875 77.2109375 C-32.5010009 71.80321113 -38.81830193 66.46687846 -45.24609375 61.24609375 C-50.19911594 57.2063948 -55.09626851 53.0992799 -60 49 C-58.67789709 45.9881398 -57.36610497 44.19459869 -54.796875 42.15234375 C-54.15339111 41.63526855 -53.50990723 41.11819336 -52.84692383 40.58544922 C-52.15493896 40.04162598 -51.4629541 39.49780273 -50.75 38.9375 C-49.67625122 38.07922607 -49.67625122 38.07922607 -48.58081055 37.20361328 C-43.44452957 33.10752709 -38.26502579 29.06565966 -33.08325195 25.02734375 C-29.11882644 21.92303332 -25.26149722 18.71266148 -21.4375 15.4375 C-16.97576399 11.62323643 -12.44779055 7.91442496 -7.8125 4.3125 C-7.25941162 3.87800537 -6.70632324 3.44351074 -6.13647461 2.99584961 C-2.23972804 0 -2.23972804 0 0 0 Z " fill="#000201" transform="translate(470,396)"/>
<path d="M0 0 C1.58367747 0.14204741 3.16693318 0.28880153 4.75 0.4375 C6.07257813 0.55931641 6.07257813 0.55931641 7.421875 0.68359375 C9.69775952 0.96290685 11.78698816 1.42206661 14 2 C13.42712745 8.05229582 12.4883243 13.76508968 10.99609375 19.65234375 C10.79746735 20.45641159 10.59884094 21.26047943 10.39419556 22.08891296 C9.96837562 23.81055288 9.54004763 25.53157411 9.10940552 27.25201416 C7.95412616 31.86945856 6.81863415 36.49178667 5.6796875 41.11328125 C5.44949417 42.0450116 5.21930084 42.97674194 4.98213196 43.93670654 C2.9542613 52.15352138 0.99080767 60.38431822 -0.9375 68.625 C-1.09248962 69.28664154 -1.24747925 69.94828308 -1.40716553 70.62997437 C-2.23177483 74.15111432 -3.05479766 77.67262229 -3.87695312 81.19433594 C-4.92879817 85.69821413 -5.98493031 90.201081 -7.04161072 94.7038269 C-8.01666079 98.85879907 -8.990951 103.01394922 -9.96511841 107.16912842 C-10.436526 109.17962573 -10.90809644 111.19008487 -11.37985229 113.20050049 C-14.64531773 127.12052459 -17.84930599 141.05354377 -21 155 C-26.2443627 156.16498953 -29.87906636 155.29934137 -35 154 C-34.40756365 147.81630153 -33.44174032 141.91427062 -32.0234375 135.87109375 C-31.82139206 134.99200348 -31.61934662 134.11291321 -31.41117859 133.20718384 C-30.73750927 130.282762 -30.05635816 127.36013918 -29.375 124.4375 C-28.89346106 122.35546546 -28.41226898 120.27335067 -27.93139648 118.19116211 C-26.29679241 111.1252914 -24.64938409 104.06243325 -23 97 C-22.68438598 95.64815295 -22.36877322 94.29630562 -22.05316162 92.94445801 C-17.63314222 74.01551577 -13.19478744 55.09089721 -8.74481201 36.16897583 C-8.07899876 33.33611861 -7.41438207 30.50298528 -6.75048828 27.66967773 C-5.12770037 20.74769746 -3.49626603 13.82952537 -1.75 6.9375 C-1.57726562 6.25107422 -1.40453125 5.56464844 -1.2265625 4.85742188 C-0.81887277 3.23798766 -0.4096382 1.61894245 0 0 Z " fill="#00AE56" transform="translate(113,190)"/>
<path d="M0 0 C11.88 0 23.76 0 36 0 C35.34 0.66 34.68 1.32 34 2 C23.44 2 12.88 2 2 2 C2 30.71 2 59.42 2 89 C1.67 89 1.34 89 1 89 C0.67 59.63 0.34 30.26 0 0 Z " fill="#00BE5E" transform="translate(453,285)"/>
<path d="M0 0 C0 0.33 0 0.66 0 1 C-6.34241995 2.15316726 -12.56688704 2.09507063 -19 2 C-18.67 1.34 -18.34 0.68 -18 0 C-11.95138867 -1.35592652 -6.05780276 -1.00963379 0 0 Z " fill="#00A44F" transform="translate(513,603)"/>
<path d="M0 0 C2 1 4 2 6 3 C5.67 5.31 5.34 7.62 5 10 C0 2.5 0 2.5 0 0 Z " fill="#00984A" transform="translate(7,541)"/>
<path d="M0 0 C-1.45264038 0.8638129 -2.9123163 1.71580454 -4.375 2.5625 C-5.59316406 3.27599609 -5.59316406 3.27599609 -6.8359375 4.00390625 C-7.55007813 4.33261719 -8.26421875 4.66132812 -9 5 C-9.66 4.67 -10.32 4.34 -11 4 C-7.51147246 0.16261971 -5.09041622 -1.48780432 0 0 Z " fill="#01A24F" transform="translate(559,588)"/>
<path d="M0 0 C-3.20336822 2.83374881 -5.78087253 3.5205537 -10 4 C-10 3.34 -10 2.68 -10 2 C-6.49223216 0.39644899 -3.85645121 -0.22036864 0 0 Z " fill="#01A14D" transform="translate(547,593)"/>
<path d="M0 0 C0 0.99 0 1.98 0 3 C-3 5 -3 5 -6 5 C-6 4.34 -6 3.68 -6 3 C-6.99 2.67 -7.98 2.34 -9 2 C-6.94921875 1.77213542 -4.8984375 1.54427083 -2.84765625 1.31640625 C-0.98859771 1.18113386 -0.98859771 1.18113386 0 0 Z " fill="#019B4C" transform="translate(115,394)"/>
<path d="M0 0 C0.33 0.99 0.66 1.98 1 3 C-1.97 5.475 -1.97 5.475 -5 8 C-5 5 -5 5 -2.5 2.3125 C-1.675 1.549375 -0.85 0.78625 0 0 Z " fill="#00A350" transform="translate(182,618)"/>
<path d="M0 0 C2.64 0.33 5.28 0.66 8 1 C8 1.33 8 1.66 8 2 C6.906875 2.12375 5.81375 2.2475 4.6875 2.375 C0.92618198 2.75464801 0.92618198 2.75464801 -2 5 C-1.34 3.35 -0.68 1.7 0 0 Z " fill="#012B15" transform="translate(99,158)"/>
</svg>
