<?xml version="1.0" encoding="UTF-8"?>
<svg version="1.1" xmlns="http://www.w3.org/2000/svg" width="812" height="773">
<path d="M0 0 C1.58302603 -0.0066073 1.58302603 -0.0066073 3.19803238 -0.01334807 C6.73413402 -0.02565878 10.27008332 -0.02379559 13.80620384 -0.02196407 C16.36733208 -0.02784935 18.92845846 -0.03458877 21.48958242 -0.04210895 C27.79022236 -0.05897195 34.0908313 -0.06512496 40.39149138 -0.06795697 C47.94097218 -0.07184102 55.49041887 -0.08721544 63.03988317 -0.10271808 C81.28698324 -0.13958322 99.53408474 -0.15599098 117.78121441 -0.16959644 C126.41938537 -0.17614485 135.05755357 -0.18496925 143.69572225 -0.19397634 C173.28448886 -0.22470109 202.87325504 -0.25041321 232.46203613 -0.26129913 C234.3188238 -0.26199552 236.17561147 -0.26269319 238.03239914 -0.26339215 C238.95316872 -0.26373768 239.8739383 -0.26408321 240.82260999 -0.26443921 C245.48741919 -0.26619258 250.15222839 -0.26796394 254.81703758 -0.26975155 C255.74277115 -0.27010109 256.66850471 -0.27045063 257.6222908 -0.27081076 C287.61806493 -0.28232691 317.61371333 -0.32165967 347.6094355 -0.37749786 C379.3468494 -0.43646994 411.08419051 -0.46982877 442.8216604 -0.47431129 C446.30979819 -0.47490025 449.79793593 -0.47559523 453.28607368 -0.4763689 C454.1449072 -0.47654786 455.00374072 -0.47672682 455.88859949 -0.47691121 C469.6758398 -0.48038569 483.46294107 -0.50701524 497.25013302 -0.54209781 C511.12548788 -0.57682185 525.00067211 -0.58538376 538.87606086 -0.56788719 C547.10541971 -0.55825796 555.3342156 -0.56776696 563.56349576 -0.60566037 C569.72997595 -0.63186055 575.89589058 -0.62089532 582.06236534 -0.59621798 C584.54096361 -0.5919046 587.01961816 -0.59918958 589.49813373 -0.619891 C621.08335677 -0.86700004 649.42054646 9.71111704 672.53578758 31.48049259 C690.20046485 49.76048518 699.57821841 71.72222312 705.22719383 96.26564884 C705.39944257 96.94652986 705.5716913 97.62741088 705.74915969 98.32892466 C706.40246073 102.34237222 706.36415734 106.26719459 706.35303497 110.32696629 C706.35448841 111.24589924 706.35594185 112.1648322 706.35743934 113.1116116 C706.36110463 116.20777362 706.35761036 119.30388656 706.35417747 122.40004826 C706.35532912 124.6358367 706.35691693 126.87162496 706.35890472 129.10741282 C706.36309287 135.26539266 706.36100956 141.42335707 706.3579185 147.58133698 C706.35589384 153.53722714 706.35855068 159.4931147 706.36106587 165.44900427 C706.36633788 178.39188102 706.36587226 191.33475284 706.36298695 204.27763007 C706.36047117 215.61915179 706.35981477 226.9606717 706.3610096 238.30219364 C706.36112418 239.43078318 706.36112418 239.43078318 706.36124107 240.58217251 C706.36155242 243.63666325 706.36187082 246.69115398 706.36220083 249.74564472 C706.36526234 278.42499895 706.36248375 307.10435005 706.35710393 335.7837038 C706.35236967 361.21453612 706.35277291 386.64536344 706.35756493 412.07619572 C706.3629344 440.66694481 706.36503363 469.25769112 706.36195266 497.84844065 C706.36163198 500.90480232 706.36131913 503.961164 706.3610096 507.01752567 C706.36093052 507.77003807 706.36085144 508.52255046 706.36076997 509.29786626 C706.35963745 520.61035482 706.36095374 531.92284135 706.36348915 543.23532963 C706.3663649 556.13034885 706.36559937 569.02536237 706.36020841 581.92038089 C706.35755168 588.48992517 706.3565197 595.05946158 706.35985756 601.62900639 C706.38065126 646.92747437 706.38065126 646.92747437 705.85582542 664.45058537 C705.82703965 665.54376906 705.79825388 666.63695275 705.76859581 667.76326323 C705.40723789 677.37316043 703.41968163 686.22135041 700.22719383 695.26564884 C699.89244041 696.24912296 699.89244041 696.24912296 699.5509243 697.25246525 C689.71271755 725.66520636 671.01888259 746.86642594 644.22719383 760.26564884 C642.53143211 761.1144965 642.53143211 761.1144965 640.80141258 761.98049259 C631.02400092 766.49579551 620.74722606 769.09671092 610.22719383 771.26564884 C609.3971532 771.44182169 608.56711257 771.61799453 607.71191919 771.79950595 C596.39834217 773.87019582 585.03230989 773.54347976 573.57182884 773.51961613 C571.15986709 773.52192251 568.74790603 773.52510022 566.33594644 773.52907062 C561.10564214 773.53566657 555.87537542 773.53609255 550.64507103 773.5309763 C542.86668379 773.52338838 535.08833122 773.52729085 527.30994419 773.53339291 C513.41217249 773.5439101 499.51441921 773.54301695 485.61664576 773.53723508 C473.44800177 773.53219773 461.27936451 773.53089345 449.11071968 773.53328037 C448.30255195 773.53343314 447.49438422 773.53358591 446.66172656 773.53374331 C443.38074104 773.53436603 440.09975552 773.53500284 436.81877 773.53566284 C406.04900117 773.54177859 375.27924404 773.53623853 344.50947702 773.52546905 C317.21111202 773.51598712 289.91276569 773.51681979 262.61440086 773.52639103 C231.91487319 773.53711889 201.21535587 773.54133582 170.51582658 773.5351665 C167.23782627 773.53452512 163.95982595 773.53389944 160.68182564 773.53328037 C159.47121922 773.53304314 159.47121922 773.53304314 158.2361561 773.53280112 C146.08625039 773.53053294 133.93635219 773.53317424 121.78644753 773.53823948 C107.95380916 773.54397763 94.12119204 773.54248714 80.28855629 773.53167799 C72.56149846 773.52583785 64.8344867 773.52537462 57.10743014 773.53297034 C51.31505695 773.53803249 45.52273052 773.53247834 39.73036461 773.52302119 C37.40398055 773.52080723 35.07759025 773.52187769 32.75121029 773.52677277 C21.41494471 773.54877538 10.15578321 773.34496989 -1.14703751 772.41774464 C-2.05666147 772.34601521 -2.96628543 772.27428577 -3.90347376 772.20038272 C-29.19067643 769.87150594 -52.55593788 758.69964345 -70.77280617 741.26564884 C-71.52175148 740.59146915 -72.27069679 739.91728947 -73.04233742 739.22268009 C-93.703625 719.93639939 -104.44741622 689.92288174 -105.45058405 662.26277053 C-106.10010683 641.52694675 -105.94663453 620.7691144 -105.96216702 600.02561569 C-105.96757134 594.03911083 -105.97754041 588.05261427 -105.98717648 582.06611512 C-106.01378784 565.31762046 -106.02901994 548.56912034 -106.0425176 531.82061082 C-106.04620031 527.27896228 -106.05020157 522.73731405 -106.05427027 518.19566584 C-106.07951968 489.9284547 -106.10153354 461.66124285 -106.11399841 433.39402294 C-106.11691889 426.8707628 -106.11988665 420.34750269 -106.12290382 413.82424259 C-106.12327473 413.01395782 -106.12364564 412.20367306 -106.12402779 411.3688342 C-106.13619665 385.06853583 -106.16717946 358.76830416 -106.20882535 332.46803714 C-106.25166814 305.36211135 -106.2782452 278.25622083 -106.28347313 251.15026027 C-106.28421343 247.31839101 -106.28512407 243.4865218 -106.28613091 239.6546526 C-106.28632152 238.90067437 -106.28651213 238.14669615 -106.28670853 237.36987011 C-106.2902106 225.27740405 -106.31045205 213.18502245 -106.33692754 201.09258733 C-106.36314761 188.93340267 -106.37076743 176.77431494 -106.35982625 164.61510606 C-106.35439934 158.03821881 -106.3574382 151.46154555 -106.38229179 144.88469219 C-106.40489792 138.8521424 -106.4039564 132.82004973 -106.38508792 126.78749131 C-106.3823041 124.61767703 -106.38779514 122.44783097 -106.40290086 120.27806748 C-106.59738158 90.49784856 -98.42328856 62.07139162 -78.77280617 39.26564884 C-77.94522804 38.23891056 -77.94522804 38.23891056 -77.10093117 37.19143009 C-72.32083774 31.39841211 -66.71167559 26.83146489 -60.77280617 22.26564884 C-59.99163429 21.65721134 -59.21046242 21.04877384 -58.40561867 20.42189884 C-41.75474029 8.08791486 -20.77144712 -0.06971238 0 0 Z " fill="#070707" transform="translate(105.77280616760254,-0.26564884185791016)"/>
<path d="M0 0 C0 0.66 0 1.32 0 2 C0.680625 2.0825 1.36125 2.165 2.0625 2.25 C6.63583568 3.41766017 10.51078809 5.47848415 13.80078125 8.83984375 C16.50850448 11.49947243 19.51714783 13.59530655 22.625 15.75 C40.16582174 28.17145696 55.30197238 42.62062627 68 60 C68.89320719 61.19793305 69.78643665 62.39584951 70.6796875 63.59375 C84 81.65717873 84 81.65717873 84 88 C84.66 88 85.32 88 86 88 C86.391875 89.11375 86.78375 90.2275 87.1875 91.375 C88.37633986 94.56448553 89.75567953 97.54139272 91.3359375 100.5546875 C94.15186196 106.13925314 96.3445111 111.86173074 98.4375 117.75 C98.82583008 118.84127197 99.21416016 119.93254395 99.61425781 121.05688477 C108.15762206 145.47483905 113.12493676 170.48552571 116.25 196.125 C116.37462616 197.1403331 116.37462616 197.1403331 116.50177002 198.17617798 C118.80346267 217.1759885 119.18806725 236.00485244 119.18530273 255.12255859 C119.18522195 257.93968188 119.19210028 260.75664087 119.20581055 263.57373047 C119.57483006 340.63119597 105.56840707 421.86930564 53.29638672 481.52001953 C52.08676666 482.90094548 50.88862519 484.2919027 49.69140625 485.68359375 C30.11085104 508.056385 3.75229497 525.46885231 -24 536 C-24.76683105 536.29213379 -25.53366211 536.58426758 -26.32373047 536.88525391 C-96.27911903 562.98801083 -181.88684092 551 -251 551 C-251 361.25 -251 171.5 -251 -24 C-55.10362141 -26.41847381 -55.10362141 -26.41847381 0 0 Z " fill="#FDFDFD" transform="translate(639,119)"/>
<path d="M0 0 C6.04082603 -0.01714652 12.08163752 -0.02954366 18.1224823 -0.0377655 C20.17243192 -0.04119743 22.22237988 -0.04586958 24.27232361 -0.05186462 C63.51661954 -0.16366152 104.75470559 4.3287732 135 32 C135.88945313 32.79664063 136.77890625 33.59328125 137.6953125 34.4140625 C150.1152456 46.12630711 159.15117543 60.45227876 166 76 C166.3295166 76.74024414 166.6590332 77.48048828 166.99853516 78.24316406 C179.24869691 106.16486226 184.81470315 135.83612505 188 166 C188.14574463 167.33272949 188.14574463 167.33272949 188.29443359 168.69238281 C189.23094172 178.31975357 189.24358708 187.96083663 189.25 197.625 C189.25067474 198.5432959 189.25134949 199.4615918 189.25204468 200.40771484 C189.20333296 242.51648692 184.25874723 285.56288175 166 324 C165.68981934 324.6614502 165.37963867 325.32290039 165.06005859 326.00439453 C154.83269987 347.45967324 138.40601776 366.6433217 118 379 C115.6015625 379.76171875 115.6015625 379.76171875 114 380 C114 380.66 114 381.32 114 382 C111.14735322 383.12898402 108.29300063 384.25327567 105.4375 385.375 C104.63763672 385.69210937 103.83777344 386.00921875 103.01367188 386.3359375 C91.1105957 391 91.1105957 391 85 391 C85 391.66 85 392.32 85 393 C82.20901043 393.48340669 79.41730344 393.96179062 76.625 394.4375 C75.85027344 394.57220703 75.07554687 394.70691406 74.27734375 394.84570312 C64.60818432 396.4838665 55.13712723 397.15226888 45.33203125 397.1328125 C44.25298019 397.13376923 43.17392914 397.13472595 42.06217957 397.13571167 C39.7973932 397.13638792 37.53260483 397.13457262 35.26782227 397.13037109 C31.81196741 397.12499917 28.35624158 397.13034309 24.90039062 397.13671875 C22.69010388 397.13605818 20.47981722 397.13477745 18.26953125 397.1328125 C17.24334183 397.13483673 16.2171524 397.13686096 15.15986633 397.13894653 C14.19163437 397.13579437 13.2234024 397.13264221 12.22583008 397.12939453 C11.38329178 397.12859894 10.54075348 397.12780334 9.67268372 397.12698364 C6.40754624 396.97185154 3.22842304 396.5004443 0 396 C0.00745743 394.79223404 0.01491486 393.58446808 0.02259827 392.34010315 C0.08711823 380.93768525 0.1041612 369.53604421 0.07515812 358.13346958 C0.06176229 352.27163615 0.06488037 346.41079563 0.10620117 340.54907227 C0.14549152 334.8881087 0.14079832 329.22870827 0.10607719 323.56773186 C0.100494 321.41206118 0.11054993 319.25628944 0.13676643 317.10077095 C0.63240863 305.45635635 0.63240863 305.45635635 -2.95169067 294.70626831 C-5.19193225 292.41508554 -7.2895598 290.69216651 -10 289 C-10.6335289 288.56285172 -11.2670578 288.12570343 -11.91978455 287.67530823 C-13.26627831 286.76316648 -14.63080114 285.87769158 -16 285 C-16 284.34 -16 283.68 -16 283 C-16.56203125 282.75765625 -17.1240625 282.5153125 -17.703125 282.265625 C-20.45389663 280.7498937 -22.45788803 278.89611758 -24.75 276.75 C-28.53319618 273.26429551 -32.37662272 270.12214511 -36.6015625 267.19140625 C-37.06304687 266.79824219 -37.52453125 266.40507812 -38 266 C-38 265.34 -38 264.68 -38 264 C-38.78375 263.7525 -39.5675 263.505 -40.375 263.25 C-43.46493987 261.77860006 -43.53659227 260.92681545 -45 258 C-46.6635479 257.32558869 -48.33066942 256.6599679 -50 256 C-51.70153975 254.36895186 -53.36355307 252.69634814 -55 251 C-56.71914949 249.30247084 -58.43923976 247.60589404 -60.16015625 245.91015625 C-61.62651019 244.45854615 -63.09190519 243.00597559 -64.55688477 241.55297852 C-65.56063896 240.55931558 -66.56617609 239.56745045 -67.57348633 238.57739258 C-69.04471087 237.13061255 -70.50921359 235.67730232 -71.97265625 234.22265625 C-73.27601929 232.93500366 -73.27601929 232.93500366 -74.60571289 231.62133789 C-79.52909649 226.23106872 -82.4186352 221.6096114 -82.26953125 214.16796875 C-80.23278559 197.78544934 -58.57840594 181.74149418 -46.97363281 171.72631836 C-43.60736758 168.78187731 -40.37340849 165.69812032 -37.125 162.625 C-31.15368538 157.00160937 -25.12386143 151.45731869 -19 146 C-16.53807552 143.77973682 -14.07755271 141.55792823 -11.6171875 139.3359375 C-9 137 -9 137 -7.02957153 135.6881094 C-3.66908673 133.26142568 -1.37594653 131.3716971 -0.25631714 127.28656197 C0.02486845 123.925674 0.05499096 120.64410776 0 117.27172852 C0.01092178 116.00274216 0.02184357 114.7337558 0.03309631 113.42631531 C0.06200507 109.96339792 0.04206866 106.50231208 0.0130806 103.03946042 C-0.00886566 99.41454373 0.01449259 95.7899193 0.03295898 92.1650238 C0.06104899 85.30848532 0.04864249 78.45264759 0.02153492 71.59612936 C-0.00735555 63.78706878 0.00912931 55.97830771 0.02934647 48.16924393 C0.06990355 32.11262487 0.05373578 16.0565863 0 0 Z " fill="#080808" transform="translate(480,184)"/>
<path d="M0 0 C0.33 0 0.66 0 1 0 C1.06362752 60.48859186 0.9520753 120.97704566 0.76428032 181.46533012 C0.75532386 184.36433778 0.74641609 187.26334558 0.73754883 190.16235352 C0.73424347 191.24118465 0.73424347 191.24118465 0.73087133 192.34181036 C0.69505828 204.1310183 0.67039767 215.92022562 0.64965298 227.70946863 C0.62779 240.00544158 0.59471864 252.30134771 0.55129844 264.59726363 C0.52747895 271.42630244 0.50835703 278.25527644 0.50238609 285.08435631 C0.4962884 291.46213601 0.47612253 297.83972521 0.44572449 304.21743393 C0.43704569 306.5306789 0.43320012 308.84394883 0.43499184 311.1572094 C0.45728327 353.25369041 -6.50750118 392.18389829 -36.75 423.1875 C-47.68234351 433.97533962 -60.0531972 441.72712294 -74 448 C-75.13179687 448.53238281 -76.26359375 449.06476563 -77.4296875 449.61328125 C-118.70902928 467.7256455 -175.23415135 467.60295565 -217.18701172 451.41601562 C-251.25842186 437.73000411 -273.34503145 413.2466437 -287.86376953 380.0234375 C-295.07040006 362.94861261 -298.18870998 345.44583197 -298.13037109 326.96362305 C-298.12500282 324.9385635 -298.13034681 322.91372477 -298.13671875 320.88867188 C-298.13542969 319.59380859 -298.13414062 318.29894531 -298.1328125 316.96484375 C-298.13168457 315.7955835 -298.13055664 314.62632324 -298.12939453 313.42163086 C-297.9957558 309.88776885 -297.55987567 306.48963223 -297 303 C-284.68192165 302.84702966 -272.41427393 303.26339496 -260.10913086 303.79956055 C-256.93944597 303.93741537 -253.76956447 304.06969231 -250.59960938 304.20117188 C-239.72142881 304.65983465 -228.85839149 305.19265637 -218 306 C-217.82984375 307.28132813 -217.6596875 308.56265625 -217.484375 309.8828125 C-216.05763296 320.22393505 -214.33278019 330.07827505 -211 340 C-210.71511719 340.88816406 -210.43023437 341.77632812 -210.13671875 342.69140625 C-207.65345057 349.68175147 -203.55864041 355.20388435 -199 361 C-198.26330078 361.96873047 -198.26330078 361.96873047 -197.51171875 362.95703125 C-195.25286866 365.8312956 -193.34148408 367.55202357 -190 369 C-189.55269531 369.47695313 -189.10539062 369.95390625 -188.64453125 370.4453125 C-186.77418685 372.21347657 -185.23301066 372.85420945 -182.8125 373.6875 C-182.09707031 373.93886719 -181.38164062 374.19023438 -180.64453125 374.44921875 C-180.10183594 374.63097656 -179.55914062 374.81273437 -179 375 C-179 375.66 -179 376.32 -179 377 C-157.92798682 380.67611445 -134.72573238 381.87865018 -116 370 C-108.87155904 364.72939634 -103.91320802 358.93751658 -100 351 C-99.62230469 350.24332031 -99.24460937 349.48664063 -98.85546875 348.70703125 C-92.8608357 335.30330118 -92.5943667 320.91111354 -92.742136 306.51301193 C-92.77025667 303.50842975 -92.7746477 300.50461428 -92.77262878 297.49990845 C-92.76913415 288.97003796 -92.7921205 280.44070271 -92.8659668 271.91113281 C-92.90976456 266.65981222 -92.91413015 261.40964002 -92.89438438 256.15819168 C-92.89448107 254.17687026 -92.90908492 252.19548783 -92.93934059 250.21439743 C-93.13640183 236.97117878 -91.58692138 228.95889284 -84 218 C-82.97382319 216.03167011 -81.97749075 214.04704403 -81.03125 212.0390625 C-80.39316406 210.68554688 -80.39316406 210.68554688 -79.7421875 209.3046875 C-79.33226562 208.42039062 -78.92234375 207.53609375 -78.5 206.625 C-78.05914062 205.6865625 -77.61828125 204.748125 -77.1640625 203.78125 C-76.10416399 201.52320535 -75.04949532 199.26289329 -74 197 C-71.69 197.66 -69.38 198.32 -67 199 C-67 199.66 -67 200.32 -67 201 C-62.71 201 -58.42 201 -54 201 C-53.67 200.01 -53.34 199.02 -53 198 C-52.40413086 197.4330542 -51.80826172 196.8661084 -51.19433594 196.28198242 C-48.38489708 193.36032855 -46.70131009 190.07052912 -44.890625 186.48828125 C-44.51895203 185.76062057 -44.14727905 185.0329599 -43.76434326 184.2832489 C-42.98364678 182.74641331 -42.20730059 181.20736097 -41.43505859 179.66625977 C-40.25782844 177.32804883 -39.05360207 175.00514219 -37.84765625 172.68164062 C-37.08944079 171.18054752 -36.33287599 169.67861928 -35.578125 168.17578125 C-35.03916595 167.14871819 -35.03916595 167.14871819 -34.48931885 166.10090637 C-32.01145551 161.05262371 -31.29636863 156.60516539 -32 151 C-34.76471649 143.62742268 -40.87676216 139.65577222 -47 135 C-45.13310672 127.81739035 -42.99443859 120.81305313 -40.48046875 113.83203125 C-40.14547867 112.89101059 -39.81048859 111.94998993 -39.46534729 110.98045349 C-38.37630432 107.9231814 -37.28186038 104.86787224 -36.1875 101.8125 C-34.64283797 97.48107146 -33.10087478 93.14868306 -31.55859375 88.81640625 C-30.97804733 87.18758011 -30.97804733 87.18758011 -30.38577271 85.52584839 C-27.08579454 76.26122981 -23.83584493 66.97968186 -20.60079956 57.69223022 C-13.88252013 38.40732949 -6.98087376 19.19126081 0 0 Z " fill="#FDFDFD" transform="translate(361,213)"/>
<path d="M0 0 C30.36 0 60.72 0 92 0 C92 44 92 44 81 56 C78.90290171 58.67330572 76.9136121 61.27413405 75 64.0625 C74.2562915 65.13927002 74.2562915 65.13927002 73.49755859 66.23779297 C53.79007205 95.20097227 41.56130197 128.4857995 28.20751953 160.68408203 C26.10541048 165.75063593 23.99017208 170.81161807 21.87109375 175.87109375 C14.76169722 192.85516294 7.75666557 209.87179212 1 227 C0.67 227 0.34 227 0 227 C0 152.09 0 77.18 0 0 Z " fill="#FDFDFD" transform="translate(269,95)"/>
<path d="M0 0 C2.8125 2.4375 2.8125 2.4375 5 5 C6.2684375 6.2065625 6.2684375 6.2065625 7.5625 7.4375 C15.05854887 15.31796164 16.4786425 22.63631292 16.3125 33.23828125 C15.61429963 41.64286823 11.87526603 48.9697819 6 55 C1.82766029 58.33061553 -1.79454984 60.69863746 -7 62 C-7 83.45 -7 104.9 -7 127 C-5.68 127.66 -4.36 128.32 -3 129 C-1.1328125 130.85546875 -1.1328125 130.85546875 0.875 133.1875 C1.66132813 134.08210937 2.44765625 134.97671875 3.2578125 135.8984375 C3.69254883 136.39311523 4.12728516 136.88779297 4.57519531 137.39746094 C7.25461304 140.4111172 10.00109438 143.36230757 12.75 146.3125 C13.64029907 147.26817871 13.64029907 147.26817871 14.54858398 148.24316406 C18.59511411 152.56135011 22.73270374 156.77375304 26.9375 160.9375 C33.97047916 167.92520021 33.97047916 167.92520021 37.3125 171.5625 C37.84488281 172.14128906 38.37726563 172.72007812 38.92578125 173.31640625 C40 175 40 175 40 179 C39.17382812 180.92285156 39.17382812 180.92285156 38.03125 182.890625 C37.42216797 183.95410156 37.42216797 183.95410156 36.80078125 185.0390625 C36.15689453 186.13347656 36.15689453 186.13347656 35.5 187.25 C35.07074219 187.99507812 34.64148438 188.74015625 34.19921875 189.5078125 C33.14046836 191.34297984 32.071238 193.1720939 31 195 C25.95316469 190.7707585 21.20983336 186.35730185 16.5625 181.6953125 C15.87873291 181.01250214 15.19496582 180.32969177 14.49047852 179.62619019 C13.05394726 178.1903353 11.61866148 176.75323338 10.18457031 175.31494141 C8.00957331 173.13459685 5.82930082 170.95963129 3.6484375 168.78515625 C2.24447103 167.38052874 0.84081492 165.97559094 -0.5625 164.5703125 C-1.52530884 163.61054001 -1.52530884 163.61054001 -2.50756836 162.63137817 C-6.29698414 158.82261981 -9.89803431 154.90462518 -13.38842773 150.81954956 C-15.01978645 148.97766006 -16.73184934 147.27272912 -18.5 145.5625 C-19.66902659 144.37732314 -20.83565756 143.18977899 -22 142 C-22.61171555 141.41836594 -23.22343109 140.83673187 -23.85368347 140.23747253 C-29.75316794 133.87270902 -29.885883 127.74392392 -29.6196537 119.45330238 C-29.54941341 117.19428975 -29.52674939 114.93903639 -29.51615906 112.67900085 C-29.47702421 106.26406693 -29.34756379 99.85154457 -29.20288086 93.43823242 C-29.11722667 89.49829945 -29.08035858 85.56018805 -29.07161522 81.61937523 C-29.05111941 79.3999003 -28.97321838 77.18710927 -28.89411926 74.96907043 C-28.83928471 71.16437998 -28.97404396 67.69656758 -30 64 C-32.37075166 61.63850869 -34.4535033 60.42076465 -37.51628113 59.10197449 C-43.88424958 56.27663912 -47.57918758 49.26152442 -50 43 C-53.17614526 32.71362047 -52.78465059 23.21559553 -47.74609375 13.609375 C-44.23637062 7.98616737 -39.51076046 1.42400188 -32.93359375 -0.65234375 C-31 -0.9375 -31 -0.9375 -28 -1 C-28 -1.66 -28 -2.32 -28 -3 C-18.33185304 -5.19811844 -8.71951106 -5.0386668 0 0 Z " fill="#F9F9F9" transform="translate(182,163)"/>
<path d="M0 0 C4.33304076 0.64465202 7.86672065 2.18925122 11.8125 4.0625 C12.97394531 4.61035156 14.13539063 5.15820312 15.33203125 5.72265625 C16.21246094 6.14417969 17.09289062 6.56570313 18 7 C18 7.66 18 8.32 18 9 C18.59167969 9.12117188 19.18335938 9.24234375 19.79296875 9.3671875 C24.03803585 10.26744643 28.02439661 11.20456621 32 13 C32 13.66 32 14.32 32 15 C33.32 15 34.64 15 36 15 C36 15.66 36 16.32 36 17 C37.25683594 17.23460937 38.51367188 17.46921875 39.80859375 17.7109375 C45.54000951 18.98458545 50.71553802 21.24361123 56.0625 23.625 C57.50399414 24.25535156 57.50399414 24.25535156 58.97460938 24.8984375 C61.31967067 25.925131 63.66123776 26.95905727 66 28 C66.27099756 35.06601036 63.91921283 39.74673696 59.625 45.25 C54.72474378 50.38360176 54.72474378 50.38360176 51 52 C47.45417032 51.51861253 44.3041171 50.34246018 41 49 C40.27425781 48.70867187 39.54851562 48.41734375 38.80078125 48.1171875 C37.18702851 47.44288108 35.59101469 46.72633279 34 46 C33.64035156 47.14726562 33.28070313 48.29453125 32.91015625 49.4765625 C30.42851955 56.90559244 27.39328413 64.12552371 24.4375 71.375 C24.1125354 72.17455109 23.7875708 72.97410217 23.45275879 73.79788208 C17.40707603 88.6705027 11.21976414 103.48262264 5.00488281 118.28515625 C-0.38475536 131.1243891 -5.739739 143.97755998 -11.05993652 156.84573364 C-11.88347255 158.83741713 -12.70759296 160.8288591 -13.53234863 162.82003784 C-17.51486875 172.43681877 -21.48060667 182.04592779 -25.11401367 191.80126953 C-26 194 -26 194 -27 195 C-28.68608966 195.07205511 -30.37500659 195.08386068 -32.0625 195.0625 C-32.98160156 195.05347656 -33.90070313 195.04445313 -34.84765625 195.03515625 C-35.55792969 195.02355469 -36.26820313 195.01195312 -37 195 C-37.14501953 196.52947266 -37.14501953 196.52947266 -37.29296875 198.08984375 C-38.0360688 202.1994744 -39.27525434 204.93733695 -41.3125 208.5625 C-42.20388672 210.17318359 -42.20388672 210.17318359 -43.11328125 211.81640625 C-44.38849075 213.96815726 -45.72714679 216.08335497 -47.12109375 218.16015625 C-48.60721273 220.40632776 -49.75762282 222.39405705 -50.75 224.875 C-51.1625 225.90625 -51.575 226.9375 -52 228 C-52.99 228 -53.98 228 -55 228 C-54.125 221.125 -54.125 221.125 -53 220 C-52.69640434 218.08824911 -52.4332473 216.17004429 -52.1875 214.25 C-51.16548005 207.2352267 -49.25794937 200.7054254 -47 194 C-46.67 193.01 -46.34 192.02 -46 191 C-46.495 190.649375 -46.99 190.29875 -47.5 189.9375 C-49.27165356 187.64911415 -49.41416985 186.12190318 -49.34375 183.26879883 C-48.55450069 178.0596413 -46.23942263 173.21965591 -44.25 168.375 C-43.74599902 167.12357516 -43.24292596 165.87177625 -42.74072266 164.61962891 C-41.17877341 160.73885255 -39.5924242 156.86835469 -38 153 C-37.52981445 151.85660156 -37.05962891 150.71320313 -36.57519531 149.53515625 C-34.68901723 144.95920545 -32.79580445 140.38624894 -30.89428711 135.81665039 C-24.61095168 120.71435665 -18.50762477 105.53903136 -12.38371277 90.37158203 C-9.66463749 83.63908137 -6.93550334 76.91070485 -4.203125 70.18359375 C-3.03400223 67.30314177 -1.8650396 64.42262486 -0.69613647 61.54208374 C0.05387491 59.69484731 0.80449613 57.84785834 1.55575562 56.00112915 C2.60005855 53.43372694 3.64206478 50.86540354 4.68359375 48.296875 C4.99113586 47.5425267 5.29867798 46.78817841 5.61553955 46.01097107 C7.22053096 42.04616529 8.69737665 38.07756814 10 34 C9.45472656 33.82984375 8.90945312 33.6596875 8.34765625 33.484375 C2.71615022 31.67459186 -2.63939569 29.49654622 -8 27 C-7.62675643 17.51961329 -6.22308991 7.52104867 0 0 Z " fill="#FBFBFB" transform="translate(242,345)"/>
<path d="M0 0 C0 0.66 0 1.32 0 2 C1.0209375 2.309375 1.0209375 2.309375 2.0625 2.625 C11.3345534 6.9651101 14.89657203 14.2906955 18.3125 23.5625 C20.24172257 33.20861287 18.64639292 42.09717582 13.421875 50.5546875 C8.17052882 57.58013712 3.37082051 62.2097265 -5 65 C-5 76.88 -5 88.76 -5 101 C-3.68 101.66 -2.36 102.32 -1 103 C0.57836599 104.37649306 2.10716036 105.81059881 3.60083008 107.27856445 C4.50468948 108.16320877 5.40854889 109.04785309 6.33979797 109.95930481 C7.31692664 110.92674085 8.2934912 111.89474693 9.26953125 112.86328125 C10.27511831 113.85735853 11.28070815 114.85143299 12.28630066 115.84550476 C14.38900016 117.9272334 16.48703575 120.01354959 18.58276367 122.10229492 C21.27076211 124.77929117 23.97682719 127.43721393 26.6875658 130.09115314 C28.76935448 132.13573571 30.83764521 134.1935715 32.90244102 136.25530052 C33.89468094 137.24148262 34.89192644 138.22265457 35.89417458 139.19866371 C37.29218562 140.5626344 38.66970598 141.94751273 40.04614258 143.33325195 C40.83571854 144.11553665 41.62529449 144.89782135 42.438797 145.70381165 C44 148 44 148 43.78863525 150.66439819 C43.52838562 151.43514679 43.26813599 152.20589539 43 153 C42.78077881 153.67200439 42.56155762 154.34400879 42.33569336 155.03637695 C42.08956299 155.68050537 41.84343262 156.32463379 41.58984375 156.98828125 C41.32236328 157.69404297 41.05488281 158.39980469 40.77929688 159.12695312 C40.50150391 159.84818359 40.22371094 160.56941406 39.9375 161.3125 C39.65583984 162.05306641 39.37417969 162.79363281 39.08398438 163.55664062 C38.39281425 165.37242655 37.69688311 167.18639899 37 169 C34 169 34 169 31.16845703 166.49316406 C30.0240101 165.34145302 28.88765821 164.18166351 27.7578125 163.015625 C27.15242645 162.40362244 26.54704041 161.79161987 25.92330933 161.16107178 C23.98334409 159.19765596 22.05377117 157.22440834 20.125 155.25 C18.2017355 153.29157439 16.27633234 151.33532332 14.34811401 149.3817749 C13.14833222 148.16514129 11.95165916 146.94543174 10.75857544 145.722229 C8.28373793 143.20352216 5.87812419 140.90430917 3.09326172 138.71777344 C2.40248535 138.1509082 1.71170898 137.58404297 1 137 C1 136.34 1 135.68 1 135 C0.45110107 134.74371826 -0.09779785 134.48743652 -0.66333008 134.22338867 C-10.53072605 129.05720737 -21.5355959 120.53306131 -26 110 C-28.33639345 99.92867814 -27.62490569 89.22988404 -27.0222168 78.98950195 C-26.94847588 77.46829994 -26.94847588 77.46829994 -26.87324524 75.91636658 C-26.76741228 73.98927538 -26.6166753 72.06397172 -26.41496277 70.14454651 C-26.24983259 67.49085912 -26.18640439 65.53524911 -27 63 C-29.74601033 60.65740715 -32.71006058 59.4132673 -36 58 C-43.65316952 51.63237073 -47.43154787 43.9213763 -48.375 34.09375 C-48.83703283 23.89404362 -47.28625666 15.74938178 -40.75 7.6875 C-30.16540271 -3.53171982 -14.05731576 -6.88521588 0 0 Z " fill="#FAFAFA" transform="translate(146,346)"/>
<path d="M0 0 C8.38421303 3.35092725 8.38421303 3.35092725 11.3125 6.4375 C14.46140685 9.43994606 16.96192376 10.49561865 21 12 C20.35920409 18.49941967 18.41483423 24.40000156 16.37890625 30.5859375 C15.82212944 32.30192642 15.82212944 32.30192642 15.25410461 34.05258179 C14.24029644 37.17527059 13.22170891 40.29635519 12.20156097 43.41697693 C10.45550425 48.76673148 8.72562892 54.12176359 6.99237823 59.47567749 C6.31996285 61.55220541 5.64692181 63.62852981 4.97381592 65.70483398 C0.54677287 79.36732172 -3.80416005 93.05356101 -8.125 106.75 C-8.48889832 107.90315704 -8.85279663 109.05631409 -9.22772217 110.24441528 C-15.06326145 128.74937486 -20.82942988 147.27558349 -26.5625 165.8125 C-26.93465637 167.0152356 -27.30681274 168.21797119 -27.69024658 169.45715332 C-28.73375137 172.83166665 -29.77549857 176.20671602 -30.81640625 179.58203125 C-31.28064247 181.08395775 -31.28064247 181.08395775 -31.7542572 182.6162262 C-32.03717117 183.53540329 -32.32008514 184.45458038 -32.61157227 185.40161133 C-32.85706314 186.1978743 -33.10255402 186.99413727 -33.35548401 187.81452942 C-33.96038088 189.86565666 -34.49847784 191.92144519 -35 194 C-43.11593505 191.91147495 -50.47056459 188.64670147 -58 185 C-56.61972531 178.31542363 -54.80223042 171.91076306 -52.68359375 165.42578125 C-52.19108627 163.90027397 -52.19108627 163.90027397 -51.68862915 162.34394836 C-50.97918457 160.14739043 -50.26798567 157.95139848 -49.5552063 155.75592041 C-47.62949821 149.8232147 -45.71743826 143.88611224 -43.8046875 137.94921875 C-43.21032646 136.10571838 -43.21032646 136.10571838 -42.60395813 134.22497559 C-38.36004421 121.04489867 -34.20764747 107.83640261 -30.0625 94.625 C-25.28345493 79.40181834 -20.48108442 64.18836331 -15.55541992 49.01196289 C-10.26963485 32.70679533 -5.14493932 16.35003632 0 0 Z " fill="#FBFBFB" transform="translate(557,298)"/>
<path d="M0 0 C3.54265752 2.0583362 6.11090706 4.11090706 9 7 C10.32175177 8.01525861 11.65630759 9.01396324 13 10 C15.92984318 12.15143466 18.42948053 14.42948053 21 17 C21.99 17.639375 22.98 18.27875 24 18.9375 C27 21 27 21 28.8125 23.375 C31.43168115 26.51801738 34.2999955 28.27670962 37.78125 30.375 C40.38058212 32.2787362 42.01173234 34.47404906 44 37 C45.50066169 38.31900264 47.04474164 39.58998743 48.625 40.8125 C49.50414062 41.50214844 50.38328125 42.19179688 51.2890625 42.90234375 C53.03205411 44.25102746 54.77671136 45.59756277 56.5234375 46.94140625 C61.08964792 50.50650745 65.46820774 54.21536294 69.6875 58.1875 C70.53699219 58.98542969 71.38648438 59.78335938 72.26171875 60.60546875 C74 63 74 63 73.921875 65.5390625 C69.48244256 77.39008978 58.62459975 85.86474181 49.04296875 93.52734375 C45.50362004 96.40334854 42.06193483 99.37806981 38.625 102.375 C33.40356193 106.92283169 28.15475616 111.4333882 22.85742188 115.89257812 C19.99720521 118.30247777 17.15163264 120.72742887 14.32421875 123.17578125 C13.70683838 123.70937256 13.08945801 124.24296387 12.45336914 124.79272461 C11.27721309 125.81057311 10.10305294 126.83073495 8.93139648 127.85375977 C5.11042359 131.15671166 1.14565792 134.11378246 -3 137 C-3.41882733 132.48618535 -3.7590931 127.97521228 -4.03149414 123.45019531 C-4.13439993 121.91643203 -4.25767683 120.38388166 -4.40258789 118.85351562 C-5.58078548 106.18685805 -5.58078548 106.18685805 -1.72924805 100.85864258 C1.06212505 98.30799038 3.89053699 96.14597833 7 94 C8.86441801 92.4917515 10.72007438 90.97253612 12.5625 89.4375 C13.47128906 88.70402344 14.38007812 87.97054687 15.31640625 87.21484375 C18.79058353 84.34750966 22.10137818 81.31916169 25.4296875 78.28515625 C29.82962481 74.37335788 34.41246931 70.68921194 39 67 C35.04135029 61.99960037 30.87182487 58.13888967 25.83984375 54.234375 C22.65839859 51.73122971 19.57772722 49.12858198 16.5 46.5 C7.21960433 38.37731608 7.21960433 38.37731608 -2.8125 31.27734375 C-5 29 -5 29 -5.15625 25.3125 C-4.96701764 23.87081733 -4.74656007 22.43299195 -4.5 21 C-4.39123535 20.25049072 -4.2824707 19.50098145 -4.17041016 18.72875977 C-3.19961759 12.38611291 -1.78155785 6.16419017 0 0 Z " fill="#FAFAFA" transform="translate(589,331)"/>
<path d="M0 0 C3.39925193 5.0988779 3.34980341 11.0063696 4 17 C4.20367187 18.26585937 4.40734375 19.53171875 4.6171875 20.8359375 C5.52954747 29.86643925 5.52954747 29.86643925 2.79443359 33.68164062 C-0.48970944 37.14259798 -4.26342704 39.92958111 -8.14892578 42.67724609 C-10.78386596 44.56014057 -13.25964274 46.61875272 -15.75 48.6875 C-16.62785156 49.40035156 -17.50570312 50.11320312 -18.41015625 50.84765625 C-21.90514813 53.75224226 -25.26896421 56.78876502 -28.62890625 59.84765625 C-32.04348111 62.94721267 -35.51874107 65.97577785 -39 69 C-37.9171875 70.0828125 -37.9171875 70.0828125 -36.8125 71.1875 C-35.09371843 72.90628157 -33.38321375 74.63345614 -31.6875 76.375 C-26.61891512 81.32571081 -21.17665348 85.86772574 -15.78515625 90.4609375 C-14.51195853 91.55861781 -13.25009683 92.6695042 -11.99609375 93.7890625 C-8.15815882 97.21188872 -4.36264633 100.27334604 0 103 C-0.66048315 109.77864289 -1.74691622 116.38230956 -3.0625 123.0625 C-3.24876953 124.02349609 -3.43503906 124.98449219 -3.62695312 125.97460938 C-4.08145562 128.31704531 -4.53918902 130.65879844 -5 133 C-9.65372944 129.59637436 -14.10083434 126.13716469 -18.3125 122.1875 C-22.76762214 118.08119924 -27.34824828 114.209794 -32.0625 110.40625 C-35.36352065 107.70222245 -38.58792334 104.91918711 -41.8125 102.125 C-46.58050002 97.99725171 -51.44721136 94.0429942 -56.4375 90.1875 C-70.00480495 79.65745718 -70.00480495 79.65745718 -74 72 C-73.25207362 62.49510226 -62.64284448 54.08927411 -56 48 C-53.19341189 45.63575458 -50.35686328 43.32167091 -47.48046875 41.04296875 C-44.96752395 39.04971702 -44.96752395 39.04971702 -42.80078125 36.73828125 C-41 35 -41 35 -39 35 C-39 34.34 -39 33.68 -39 33 C-37.46804728 31.62787699 -35.87078919 30.3284554 -34.25 29.0625 C-30.0141409 25.67924331 -25.96154388 22.19891083 -22 18.5 C-16.53202958 13.41351588 -10.83871027 8.6580548 -5 4 C-3.60587891 2.88431641 -3.60587891 2.88431641 -2.18359375 1.74609375 C-1.46300781 1.16988281 -0.74242187 0.59367187 0 0 Z " fill="#FAFAFA" transform="translate(495,329)"/>
<path d="M0 0 C4.42484878 2.21242439 7.19476657 4.94799616 10 9 C11.35471782 13.06415345 11.53849531 16.75025319 11 21 C9.1875 24.3125 9.1875 24.3125 7 27 C6.484375 27.763125 5.96875 28.52625 5.4375 29.3125 C4 31 4 31 1 32 C-0.68545724 32.09287771 -2.374493 32.12997204 -4.0625 32.125 C-5.37927734 32.12886719 -5.37927734 32.12886719 -6.72265625 32.1328125 C-9 32 -9 32 -11 31 C-11 30.34 -11 29.68 -11 29 C-11.8353125 28.690625 -11.8353125 28.690625 -12.6875 28.375 C-16.48104573 26.11937821 -19.2411374 23.26738946 -20.64453125 19.07421875 C-21.54157517 13.99754164 -20.56861522 10.53788689 -18 6 C-12.68032083 -0.11763104 -7.82508018 -0.87894816 0 0 Z " fill="#0B0B0B" transform="translate(136,360)"/>
<path d="M0 0 C3.58407713 3.24273645 6.22035241 5.83975896 7.0078125 10.7734375 C7.26477086 16.47791306 6.5099647 19.96504007 2.625 24.375 C-1.07605076 27.71497264 -3.61008496 29.20529663 -8.625 29.6875 C-13.85658035 29.25153497 -17.24372358 27.44722342 -20.92578125 23.8671875 C-24.14253585 19.97083685 -25.11497309 16.61649227 -24.7890625 11.58203125 C-23.78111028 6.20945576 -21.5245273 3.27163129 -17.25 -0.0625 C-11.56860108 -2.88487237 -5.63594899 -2.71360507 0 0 Z " fill="#090909" transform="translate(173.375,179.625)"/>
<path d="M0 0 C0.33 0 0.66 0 1 0 C1 2.64 1 5.28 1 8 C1.66 8 2.32 8 3 8 C2.34 10.64 1.68 13.28 1 16 C-0.32 16.33 -1.64 16.66 -3 17 C-2.125 10.125 -2.125 10.125 -1 9 C-0.76807135 7.48530552 -0.58784762 5.96245438 -0.4375 4.4375 C-0.35371094 3.61121094 -0.26992187 2.78492188 -0.18359375 1.93359375 C-0.12300781 1.29550781 -0.06242188 0.65742187 0 0 Z " fill="#EEEFEF" transform="translate(190,556)"/>
<path d="M0 0 C0.66 0.33 1.32 0.66 2 1 C-3.28 6.28 -8.56 11.56 -14 17 C-14.66 16.67 -15.32 16.34 -16 16 C-11.03093773 10.1719243 -5.90436923 4.8836671 0 0 Z " fill="#3F4040" transform="translate(42,24)"/>
<path d="M0 0 C0.66 0.33 1.32 0.66 2 1 C1.21753906 1.72445313 0.43507813 2.44890625 -0.37109375 3.1953125 C-1.39388569 4.17118738 -2.41598496 5.14778859 -3.4375 6.125 C-3.95376953 6.599375 -4.47003906 7.07375 -5.00195312 7.5625 C-8.43711221 10.88539899 -9.72362985 13.22375688 -10 18 C-10.33 18 -10.66 18 -11 18 C-11.67579955 14.68243858 -11.9517429 13.18604843 -11 10 C-7.65813793 6.23707396 -3.93831974 3.11996758 0 0 Z " fill="#BFC0C0" transform="translate(596,425)"/>
<path d="M0 0 C0.66 0.33 1.32 0.66 2 1 C-1.63 4.63 -5.26 8.26 -9 12 C-9 8.47601214 -8.44884893 7.98495633 -6.1875 5.4375 C-5.40439453 4.53837891 -5.40439453 4.53837891 -4.60546875 3.62109375 C-3 2 -3 2 0 0 Z " fill="#C2C3C2" transform="translate(112,348)"/>
<path d="M0 0 C0.33 0 0.66 0 1 0 C1 2.64 1 5.28 1 8 C1.66 8 2.32 8 3 8 C2.67 9.98 2.34 11.96 2 14 C1.34 13.01 0.68 12.02 0 11 C-0.66 10.67 -1.32 10.34 -2 10 C-1.67 9.67 -1.34 9.34 -1 9 C-0.76807135 7.48530552 -0.58784762 5.96245438 -0.4375 4.4375 C-0.35371094 3.61121094 -0.26992187 2.78492188 -0.18359375 1.93359375 C-0.12300781 1.29550781 -0.06242188 0.65742187 0 0 Z " fill="#C9C9C9" transform="translate(190,556)"/>
<path d="M0 0 C0.33 0 0.66 0 1 0 C1 2.64 1 5.28 1 8 C-0.98 8.99 -0.98 8.99 -3 10 C-2.01 6.7 -1.02 3.4 0 0 Z " fill="#E6E6E7" transform="translate(361,213)"/>
<path d="M0 0 C0.66 0.33 1.32 0.66 2 1 C-0.31 3.31 -2.62 5.62 -5 8 C-5 5 -5 5 -2.5 2.3125 C-1.675 1.549375 -0.85 0.78625 0 0 Z " fill="#282829" transform="translate(123,361)"/>
</svg>
